<?xml version="1.0" encoding="UTF-8" standalone="no"?>
<!-- Created with Inkscape (http://www.inkscape.org/) -->

<svg
   xmlns:dc="http://purl.org/dc/elements/1.1/"
   xmlns:cc="http://creativecommons.org/ns#"
   xmlns:rdf="http://www.w3.org/1999/02/22-rdf-syntax-ns#"
   xmlns:svg="http://www.w3.org/2000/svg"
   xmlns="http://www.w3.org/2000/svg"
   xmlns:xlink="http://www.w3.org/1999/xlink"
   xmlns:sodipodi="http://sodipodi.sourceforge.net/DTD/sodipodi-0.dtd"
   xmlns:inkscape="http://www.inkscape.org/namespaces/inkscape"
   id="svg3147"
   version="1.1"
   inkscape:version="0.48.3.1 r9886"
   width="384.48141"
   height="368.4068"
   sodipodi:docname="gigo-logo.svg">
  <metadata
     id="metadata3153">
    <rdf:RDF>
      <cc:Work
         rdf:about="">
        <dc:format>image/svg+xml</dc:format>
        <dc:type
           rdf:resource="http://purl.org/dc/dcmitype/StillImage" />
        <dc:title></dc:title>
      </cc:Work>
    </rdf:RDF>
  </metadata>
  <defs
     id="defs3151">
    <linearGradient
       id="linearGradient3932">
      <stop
         style="stop-color:#ffffff;stop-opacity:1;"
         offset="0"
         id="stop3934" />
      <stop
         id="stop3940"
         offset="0.5"
         style="stop-color:#3bffff;stop-opacity:1;" />
      <stop
         style="stop-color:#d5ffff;stop-opacity:1;"
         offset="0.75"
         id="stop3942" />
      <stop
         style="stop-color:#75ffff;stop-opacity:1;"
         offset="1"
         id="stop3936" />
    </linearGradient>
    <radialGradient
       inkscape:collect="always"
       xlink:href="#linearGradient3932"
       id="radialGradient3938"
       cx="359.7933"
       cy="238.92088"
       fx="359.7933"
       fy="238.92088"
       r="111.67264"
       gradientTransform="matrix(1,0,0,0.99256959,0,1.775279)"
       gradientUnits="userSpaceOnUse" />
    <filter
       inkscape:collect="always"
       id="filter3956"
       color-interpolation-filters="sRGB">
      <feGaussianBlur
         inkscape:collect="always"
         stdDeviation="6.5105074"
         id="feGaussianBlur3958" />
    </filter>
  </defs>
  <sodipodi:namedview
     pagecolor="#ffffff"
     bordercolor="#666666"
     borderopacity="1"
     objecttolerance="10"
     gridtolerance="10"
     guidetolerance="10"
     inkscape:pageopacity="0"
     inkscape:pageshadow="2"
     inkscape:window-width="1918"
     inkscape:window-height="1180"
     id="namedview3149"
     showgrid="false"
     fit-margin-top="25"
     fit-margin-left="25"
     fit-margin-right="25"
     fit-margin-bottom="25"
     inkscape:zoom="1.9574037"
     inkscape:cx="188.7301"
     inkscape:cy="185.13865"
     inkscape:window-x="0"
     inkscape:window-y="18"
     inkscape:window-maximized="0"
     inkscape:current-layer="svg3147" />
  <path
     style="fill:#800000;fill-opacity:1;stroke:none"
     d="m 153.38635,226.95562 c -10.38292,0.0206 -17.59609,8.53334 -21.85017,17.09664 -9.7064,15.81531 -23.97898,28.98218 -40.056076,37.84086 -18.26558,8.62544 -39.52857,12.84164 -53.65625,28.28125 -7.784263,5.8286 -9.357756,19.80923 -0.09375,24.96875 10.38958,3.74986 22.44663,1.75975 31.61929,-4.27555 23.36543,-13.74047 38.383486,-38.08004 63.070576,-50.04801 12.71793,-7.07264 26.8247,-11.64562 39.56013,-18.55144 5.17795,-2.72955 8.7763,-9.34056 5.09375,-14.71875 -1.29008,-4.43521 -3.69749,-7.83359 -7.28125,-10.625 -4.42874,-5.09045 -8.75582,-11.14953 -16.40625,-9.96875 z"
     id="path5402"
     inkscape:connector-curvature="0" />
  <path
     sodipodi:type="arc"
     style="fill:url(#radialGradient3938);fill-opacity:1;stroke:none;filter:url(#filter3956)"
     id="path3162"
     sodipodi:cx="359.7933"
     sodipodi:cy="238.92088"
     sodipodi:rx="111.52264"
     sodipodi:ry="110.69286"
     d="m 471.31594,238.92088 a 111.52264,110.69286 0 1 1 -223.04527,0 111.52264,110.69286 0 1 1 223.04527,0 z"
     transform="matrix(0.83458195,0,0,0.8851827,-64.365827,-63.86215)" />
  <path
     style="fill:#ac9393;fill-opacity:1;stroke:none"
     d="m 240.4801,31.455621 c -15.91001,0.572923 -32.19159,2.514145 -47.09375,7.78125 -12.39313,8.65296 -22.47442,20.60984 -30.66245,33.29992 -4.03959,6.24072 -6.9382,15.24193 -3.02505,22.13758 4.17669,2.50304 5.59454,-4.76294 7.875,-7.125 10.21102,-19.09737 26.99429,-36.25225 49.06884,-40.15811 21.11999,-5.73367 44.74701,-5.27373 64.48665,4.78308 41.23047,20.58857 64.72376,69.274019 59.25701,114.656279 -1.59256,13.82358 -7.39607,26.91063 -16.90625,37.15625 -9.71113,11.30957 -19.79586,23.25338 -34.25,28.46875 -21.80713,9.05118 -46.34545,6.04623 -69.125,3.15625 -3.24945,-1.21528 -9.7931,-1.75502 -9.09375,3.5 2.19254,6.28348 10.79298,5.27176 16.04668,6.98965 35.12175,6.50105 75.39413,-2.23833 99.29707,-29.98965 22.02873,-25.5065 29.18187,-61.97281 22.84375,-94.71875 -7.46631,-35.317739 -29.93978,-68.905159 -64.3125,-82.374999 -13.99524,-5.713802 -29.2456,-7.89448 -44.40625,-7.5625 z"
     id="path5424"
     inkscape:connector-curvature="0" />
  <path
     style="fill:#ac9393;fill-opacity:1;stroke:none"
     d="m 166.88635,202.23687 c -5.93287,0.12922 -10.1923,6.86724 -7.0625,12.1875 6.73678,13.15771 18.68079,22.78264 29.28125,32.71875 3.6401,3.54231 11.05111,6.2347 14.96875,2.0625 2.48418,-6.33986 4.32501,-16.8961 -3.53125,-20.25 -13.25258,-5.5135 -18.9269,-21.37347 -32.1875,-26.65625 -0.49032,-0.027 -0.94689,-0.14898 -1.46875,-0.0625 z"
     id="path5428"
     inkscape:connector-curvature="0" />
  <path
     style="fill:#000000"
     d="m 190.82385,34.768121 c -19.12813,15.39846 -39.73851,34.0422 -37.46875,57.5625 0.23885,3.35107 0.4763,7.01487 0.5,8.124999 0.0237,1.11012 0.0435,2.36371 0.0625,2.78125 0.0686,1.51013 4.77124,1.29056 7.46875,-0.34375 1.51819,-0.91982 3.72299,-1.54844 4.875,-1.40625 2.72151,0.3359 4.3578,-2.839019 4.4375,-8.562499 0.0796,-5.72291 18.07604,-22.48008 23.41003,-29.72633 72.31532,-37.780323 131.54537,13.38275 142.62122,82.976329 2.93163,25.03295 -8.58439,46.68043 -24.78125,63.375 -7.22392,5.79133 -13.93987,10.1146 -23.4375,15.09375 -22.65452,11.56154 -54.085,13.31893 -77.90625,2.15625 -1.53946,-0.95536 -3.32181,-1.71 -3.96875,-1.6875 -0.64694,0.0225 -3.41256,-1.32293 -6.15625,-2.96875 -14.71656,-9.6586 -20.05025,-21.22202 -32.78125,-28.8125 -0.0837,0.0308 -1.28523,0.13775 -2.65625,0.21875 -1.37101,0.081 -3.53643,0.90861 -4.8125,1.84375 -1.27607,0.93512 -2.73879,1.63945 -3.25,1.59375 -1.58737,-0.1419 -4.5945,3.7772 -5.78125,7.53125 -0.91862,2.90585 -0.69113,4.66286 1.09375,9.3125 l 2.1875,5.75 -3.5625,1.1875 c -1.95657,0.65485 -3.97429,1.1274 -4.5,1.0625 -0.5257,-0.0649 -1.8206,0.47773 -2.875,1.1875 -1.05441,0.70978 -3.80706,2.49014 -6.125,3.96875 -3.99065,2.54563 -10.06945,10.82243 -13.875,18.9375 -1.4708,3.13636 -6.27615,8.89598 -11,13.15625 -4.82193,4.34874 -6.31217,5.8105 -6.8125,6.75 -0.67589,1.26919 -15.562686,11.46715 -16.562496,11.34375 -0.43897,-0.0542 -3.79187,1.23227 -7.4375,2.875 -3.64563,1.64274 -8.25032,3.43333 -10.25,3.96875 -8.21339,2.19914 -21.93544,8.58358 -26.9375,12.53125 -8.279647,6.53435 -13.636873,11.21029 -15.03125,13.15625 -6.660039,10.15997 -6.318892,23.63939 3.53125,31.09375 2.230539,1.49472 4.846675,2.10085 10.71875,2.46875 6.42816,0.40274 9.0586,0.008 15.15625,-2.25 28.15092,-10.5195 37.65036,-31.41532 64.312496,-49.21875 11.33704,-7.09864 25.55002,-13.85451 38.40625,-18.28125 9.5275,-3.28057 12.23727,-4.86047 18,-10.5625 3.55243,-3.51501 4.43263,-5.03205 4.3125,-7.375 -0.17922,-3.4952 1.04249,-3.60818 4.53125,-0.40625 1.36475,1.25255 3.97073,2.52856 5.8125,2.84375 4.57101,0.78217 13.45682,-2.52643 15.71875,-5.84375 2.32695,-3.41261 3.34052,-3.90953 5.78125,-2.90625 34.17164,6.39497 79.59636,8.01218 110.65435,-20.11316 C 388.51553,164.0315 356.6638,57.377271 284.41902,32.121811 257.22943,19.084939 214.24833,26.364896 190.82385,34.768121 z M 349.80254,135.39975 c 2.81495,83.17872 -56.65977,121.28418 -124.88494,108.64962 -11.49131,-2.28328 -12.57138,-2.79915 -12.21875,-5.65625 0.31567,-2.55759 0.32051,-2.56848 6.40625,-1.09375 34.93415,4.96602 65.07117,6.60749 91,-15.78125 1.68343,-1.94225 4.38705,-5.05941 6,-6.9375 1.61294,-1.87808 5.10708,-5.66789 7.78125,-8.40625 5.08087,-5.20284 11.11227,-14.24463 13.78125,-20.6875 0.86078,-2.07791 2.60466,-8.4065 3.875,-14.0625 11.77259,-68.00605 -46.16469,-146.801933 -121.58286,-126.479169 -43.18497,6.16633 -55.00949,48.87623 -58.79214,48.85417 -1.33844,-0.16519 -2.14554,-8.41504 -1.15625,-11.8125 2.97709,-10.22397 19.93463,-31.66796 34.22396,-41.6572 115.36557,-32.383035 151.01676,50.75432 155.56723,95.070079 z M 107.94885,99.611871 c -17.444676,0.0376 -40.064076,1.898759 -49.656246,0.15625 -4.7176,0.0156 -6.95546,-0.727 -7.21875,1.406249 -0.17029,1.37968 0.85382,3.20038 0.15625,2.96875 -0.16172,-0.0417 -2.54315,71.66087 -2.59375,76.4375 -0.21847,5.98301 0.10539,7.90587 1.625,9.5 1.47452,1.54682 3.15944,2.08059 7.40625,2.25 18.65879,0.62599 37.39885,-2.37152 55.718746,-3.90625 8.17689,-0.76502 9.5454,-1.604 9.5,-6.03125 -0.0219,-2.13638 -0.57514,-4.71347 -1.21875,-5.71875 -1.86188,-2.90814 -6.5199,-20.19397 -6.5625,-24.34375 -0.0534,-5.20464 -1.56373,-6.58566 -6.34375,-5.8125 -4.56337,0.73812 -26.439156,2.63633 -32.031246,2.8125 -2.54365,0.10227 -2.51328,3.75102 -0.34375,7.15625 1.4115,1.81333 1.90871,1.84599 8.96875,0.6875 10.66087,-1.74935 19.590556,-2.87264 21.343746,-2.65625 1.60025,0.19751 6.77902,18.74399 6.25,22.375 -0.15481,1.06258 0.12689,2.56476 0.625,3.34375 0.70274,1.09945 0.33622,1.34352 -1.6875,1.09375 -17.719746,1.06263 -38.086806,5.59589 -57.281246,3.21875 l 0.1875,-2.84375 c 1.6285,-25.12074 1.75434,-48.77045 3.53125,-74.09375 18.5651,-1.16899 35.19063,-1.21585 53.249996,-0.90625 1.43649,0.27195 1.40929,1.76033 -0.34375,13.15625 -1.08647,7.06269 -1.7397,12.86895 -1.4375,12.90625 2.71647,0.33528 4.5254,-1.89193 5.71875,-7.0625 2.05549,-8.90597 4.13817,-24.30335 3.46875,-25.749999 -3.25321,-0.25099 -7.00556,-0.35242 -11.03125,-0.34375 z m 32.9375,4.124999 c -0.65255,0.0867 -1.43864,0.45603 -2.34375,1.09375 -1.83811,1.29506 -2.12086,2.2335 -2,6.5625 0.42334,23.18437 -3.38848,46.81368 -1.9375,70.5 0.44922,0.76082 0.48131,1.63444 0.0937,1.9375 -0.38757,0.30305 -0.26575,1.22466 0.25,2.03125 0.51576,0.80659 1.98747,1.59032 3.28125,1.75 2.06915,0.25539 2.42975,-0.17692 2.84375,-3.53125 0.25887,-2.09739 -0.0683,-5.31223 -0.71875,-7.15625 -4.18071,-12.8652 2.49378,-48.56119 2.6875,-66.875 0.59527,-4.37377 -0.19861,-6.57273 -2.15625,-6.3125 z m 67.9375,0.4375 c -13.45454,-0.0393 -27.08845,5.43618 -39.59375,7.78125 -0.92303,-0.0905 -2.84165,1.28499 -4.28125,3.03125 l -2.625,3.15625 1.09375,10.9375 c 0.59641,6.01878 1.44161,13.27216 1.90625,16.09375 0.46464,2.82158 1.23214,10.58599 1.6875,17.28125 0.78556,11.54986 0.9796,12.26862 3.625,14 1.5335,1.00366 4.97151,2.34045 7.65625,2.96875 8.01097,1.76223 38.88636,1.88012 46.34375,-5.96875 1.22871,-2.00609 1.37283,-3.93488 0.71875,-10.21875 -0.44337,-4.25966 -1.3983,-9.19086 -2.09375,-10.9375 l -1.25,-3.15625 -12.28125,-1.3125 c -14.75759,-1.56954 -16.0556,-1.45074 -18.65625,1.625 -1.75603,2.07682 -1.85697,2.58715 -0.78125,3.96875 1.03386,1.32785 2.3971,1.54933 8.21875,1.3125 8.87178,-0.3609 15.9627,0.0747 17.09375,1.03125 1.47266,1.24538 2.64649,5.21301 2.9375,9.9375 0.25486,4.13793 0.0967,4.55102 -2.21875,5.28125 -10.42974,3.21028 -33.59152,4.40083 -41.21875,-0.78125 -1.60442,-2.06062 -2.95034,-10.24792 -2.40625,-14.65625 0.13253,-1.07377 -0.229,-5.37681 -0.8125,-9.5625 -1.37644,-9.87388 -2.14018,-25.70915 -1.28125,-26.78125 3.65829,-3.83179 21.64071,-3.49814 27.625,-7.0625 2.04517,-0.62058 5.5074,-1.20145 7.71875,-1.28125 5.3968,-0.1948 6.30199,1.35289 4.4375,7.65625 -0.78991,2.6705 -1.65507,6.29431 -1.90625,8.0625 -0.39554,2.78452 -0.10866,3.26714 2.03125,3.53125 3.44489,0.42518 5.64125,-3.88296 7.125,-13.875 1.59947,-10.77126 0.83858,-11.82715 -8.8125,-12.0625 z m 59.75,3.1875 c -2.65421,-0.004 -4.78749,0.24737 -6.9375,0.71875 -21.32419,4.54359 -24.375,3.34375 -24.375,3.34375 0.49509,1.68822 3.58279,4.7835 3.90625,9.59375 3.13788,16.49638 -1.53125,32.57722 1.125,48.65625 -0.16519,1.33845 0.0912,2.78332 0.59375,3.1875 0.50261,0.40417 0.70974,2.32871 0.46875,4.28125 -0.27387,2.21896 0.17551,4.1067 1.15625,5.0625 0.863,0.84105 2.93194,1.50475 4.59375,1.46875 14.42783,-0.24457 26.28883,-1.28114 40.1875,-2.03125 6.41373,-0.0881 5.99505,0.34091 8.8125,-9.84375 4.69336,-17.77554 -6.28198,-37.56867 -5.96875,-56.1875 0.64392,-5.21715 -0.88845,-6.08467 -13.53125,-7.53125 -4.19888,-0.48043 -7.37704,-0.71496 -10.03125,-0.71875 z m 3.96875,6.8125 c 3.39946,-0.0432 5.49899,0.47114 8.25,1.5 4.45382,1.66571 5.03394,2.22144 5.25,5.03125 1.99144,22.29227 6.81993,27.77006 6.15625,47.96875 -2.53114,8.99536 -27.19715,9.91662 -38.9375,7.25 -2.14698,-0.59923 -3.02435,-1.75252 -4.0625,-5.34375 -1.48009,-20.19716 -8.07957,-49.31289 7.25,-54.59375 8.00064,-1.16549 12.69429,-1.7693 16.09375,-1.8125 z m -105.15625,89.6875 c 3.66671,0.11464 8.38549,4.01177 15.84375,12.9375 3.61785,4.32969 7.84316,8.6481 9.375,9.59375 1.53185,0.94566 3.4508,2.16511 4.28125,2.71875 0.83046,0.55364 3.10542,1.51103 5.03125,2.125 2.08215,0.71286 4.17948,8.62379 0.59375,17.5 -0.55501,0.67694 -2.72089,1.09611 -4.8125,0.9375 -3.79427,-0.28781 -7.47268,-2.73388 -11.75,-7.84375 -1.03694,-1.23877 -2.20843,-2.29615 -2.59375,-2.34375 -1.37268,-0.16942 -13.03521,-12.3892 -17.875,-18.71875 -6.96206,-9.10508 -6.82963,-14.71129 0.40625,-16.71875 0.48552,-0.1347 0.97618,-0.20388 1.5,-0.1875 z m -13.8125,24.71875 c 0.78638,-0.0175 1.5529,0.016 2.34375,0.0937 4.77048,0.46898 5.27323,0.79311 9.875,6.375 2.66749,3.23563 5.40545,5.95015 6.0625,6.03125 0.65705,0.0811 1.37388,1.19601 1.59375,2.46875 0.21986,1.27273 1.19065,3.42098 2.15625,4.78125 4.49049,6.32586 -0.78654,12.46269 -15.21875,17.71875 -4.81164,1.75235 -8.79145,3.51407 -8.84375,3.9375 -0.0523,0.42343 -0.60455,0.73205 -1.21875,0.65625 -0.61419,-0.0758 -3.91697,1.30616 -7.375,3.09375 -3.45803,1.7876 -6.55591,3.2269 -6.875,3.1875 -1.19423,-0.1474 -14.57269,8.05496 -21.3125,13.0625 -18.793386,14.16992 -31.209726,34.03911 -53.781246,43.15625 -5.30005,2.16898 -7.49028,2.48229 -14.34375,2 -7.561368,-0.53212 -8.262691,-0.7803 -10.8125,-3.53125 -1.952081,-2.10607 -2.75121,-4.1032 -2.78125,-7.03125 -0.07782,-7.58654 1.880524,-10.45421 13.875,-20.28125 5.05564,-4.14208 11.74472,-7.56216 23.0625,-11.8125 18.50792,-6.95056 23.90701,-9.31904 28.125,-12.28125 2.086226,-1.46513 4.767896,-3.29443 5.968746,-4.0625 1.20085,-0.76809 4.75776,-3.73994 7.875,-6.625 3.11723,-2.88505 7.06426,-6.43299 8.78125,-7.875 2.68463,-2.25468 15.29101,-20.33478 15.53125,-22.28125 0.0463,-0.37486 1.40524,-2.25089 3.03125,-4.15625 3.4852,-4.08395 8.77662,-6.50242 14.28125,-6.625 z"
     id="path3157"
     inkscape:connector-curvature="0"
     sodipodi:nodetypes="ccscsscccccccccssssccccsssssssssccsccsssscsccccccsccssscccsccscsccsccssssccsssccccccssscscscccsssccscscccsssccscccsssssccssccssssscssccccssccccsssscccccssssscccscsssscscsssccscccsssssssssssscc" />
</svg>
